<svg viewBox="0 0 88.98305084745762 74.72081291201323"><g transform="translate(-6.437718667715027, -13.524315898869778) scale(0.5089108121628554)" class="css-1e98oqk" fill="#ffffff"><g xmlns="http://www.w3.org/2000/svg"><path d="M149,139h-38.9c-21.3,0-42.5,0.8-63.7,2.4c-0.7,0.1-1,0.4-1,0.8c0,0.4,0.3,0.8,1,0.8c21.2,1.6,42.4,2.4,63.7,2.4H149   c3.1,0,5.6-1.4,5.6-3.2C154.6,140.4,152.1,139,149,139z"></path><path d="M130.2,153h-24c-13.1,0-26.2,0.8-39.2,2.4c-0.9,0.1-0.9,1.5,0,1.6c13,1.6,26.1,2.4,39.2,2.4h24c1.9,0,3.4-1.4,3.4-3.2   C133.6,154.4,132.1,153,130.2,153z"></path><path d="M111.3,167h-9c-4.9,0-9.8,0.8-14.7,2.4c-0.3,0.1-0.3,1.5,0,1.6c4.9,1.6,9.8,2.4,14.7,2.4h9c0.7,0,1.3-1.4,1.3-3.2   C112.6,168.4,112,167,111.3,167z"></path><path d="M93,53l-5.6,4.7c0,0,0,0,0,0.1c0,0,0,0.2-0.2,0.1c-0.8-0.5-1.6-0.9-2.4-1.4c-1.6-0.9-3.4-1.6-5.2-2.3   c-0.3-0.1-1.2,1-1.1,1.3c1,1.7,2,3.2,3.1,4.7c0.6,0.7,1.2,1.4,1.8,2.1c1.2,1.2,2.6,2.4,3.9,3.6c1-0.8,2.1-1.7,3.1-2.6l6.5-5.5   c0.5-0.4-0.1-1.8-1.2-3.2C94.7,53.3,93.4,52.6,93,53z"></path><path d="M124.7,91.9l0.2,0.2c0.1,0.1,0.1,0.1,0.2,0.3l0.7,0.7c0.9,0.9,2,1.9,3,2.9c0.8-0.6,1.6-1.3,2.4-1.9l5.5-4.6   c0.4-0.3-0.3-1.7-1.4-3c-1.1-1.4-2.4-2.2-2.7-1.9l-3.7,3.1c0,0,0,0,0,0.1c0,0.1,0,0.1-0.2,0.2c0,0-0.1,0-0.1,0c0,0-0.1,0-0.2-0.1   l-0.2-0.1c-0.3-0.2-0.6-0.3-1-0.5c-1.3-0.6-2.7-1.1-4.2-1.4c-0.2-0.1-1.2,1-1.1,1.3c0.6,1.4,1.3,2.7,2.1,3.9   C124.3,91.3,124.5,91.6,124.7,91.9z"></path><path d="M178.6,125h-19.3c0.7-0.9,1.3-1.9,2.1-3.1c0.9-1.5,1.7-3.3,2.4-5.2c1.4-4,2.4-8.2,3-12.4c0.5-4.2,0.8-8.5,0.5-12.8   c-0.5-8.5-2.5-16.9-6-24.6c-6.9-15.5-19.6-28.4-35.4-35.1c-12.9-5.5-27.5-6.7-41-3.4c-6.8,1.7-13.3,4.4-19.2,8.1   c-5.9,3.7-11.1,8.4-15.5,13.6c-4.5,5.3-8.1,11.2-10.7,17.5c-2.7,6.3-4.4,13-5,19.8c-0.6,6.8-0.2,13.7,1.3,20.3   c1.5,6.6,4.1,12.8,7.6,18.5c-9.7,0.3-19.4,0.7-29.1,1.2h0c-2.2,0.1-2.2,1.5,0,1.6h0c33.9,1.6,68,2.4,102,2.4h62.3   c4.9,0,8.9-1.4,8.9-3.2C187.5,126.4,183.5,125,178.6,125z M44.8,125.6L44.8,125.6c-3.1-5.8-5.3-12-6.4-18.3   c-1.1-6.4-1.2-12.9-0.3-19.3c0.8-6.4,2.8-12.6,5.5-18.4c2.7-5.8,6.2-11.2,10.5-16c4.3-4.7,9.2-8.9,14.6-12.2   c5.5-3.2,11.4-5.6,17.5-7c12.3-2.9,25.5-1.6,37.1,3.3c14.2,6,25.7,17.8,32,31.9c6.4,14.1,7.4,30.5,2.2,45c-0.6,1.7-1.2,3.4-1.7,4.9   c-0.6,1.5-0.9,2.9-1.3,4.1c-0.1,0.5-0.3,1-0.4,1.4h-38.1c-23.7,0-47.4,0.4-71.1,1.2C45,126,44.9,125.8,44.8,125.6z"></path></g></g></svg>